<svg width="24" height="24" viewBox="0 0 24 24" fill="none" xmlns="http://www.w3.org/2000/svg">
<path d="M19.5 4.68788H17.0625V3.56288C17.0626 3.41369 17.0034 3.27058 16.898 3.16502C16.7926 3.05946 16.6496 3.0001 16.5004 3C16.3512 2.9999 16.2081 3.05907 16.1025 3.16449C15.997 3.26991 15.9376 3.41294 15.9375 3.56213V4.68788H12.5625V3.56288C12.5625 3.48901 12.548 3.41585 12.5198 3.34759C12.4916 3.27932 12.4502 3.21729 12.398 3.16502C12.3458 3.11275 12.2838 3.07128 12.2156 3.04296C12.1474 3.01465 12.0742 3.00005 12.0004 3C11.8512 2.9999 11.7081 3.05907 11.6025 3.16449C11.497 3.26991 11.4376 3.41294 11.4375 3.56213V4.68788H8.0625V3.56288C8.06255 3.48901 8.04805 3.41585 8.01983 3.34759C7.9916 3.27932 7.95021 3.21729 7.89801 3.16502C7.84581 3.11275 7.78383 3.07128 7.71561 3.04296C7.64738 3.01465 7.57424 3.00005 7.50038 3C7.35119 2.9999 7.20808 3.05907 7.10252 3.16449C6.99696 3.26991 6.9376 3.41294 6.9375 3.56213V4.68788H4.5C4.10231 4.68788 3.72089 4.84581 3.4396 5.12695C3.15832 5.40809 3.0002 5.78943 3 6.18713V19.4996C3 19.8975 3.15804 20.279 3.43934 20.5603C3.72064 20.8416 4.10218 20.9996 4.5 20.9996H19.5C19.8978 20.9996 20.2794 20.8416 20.5607 20.5603C20.842 20.279 21 19.8975 21 19.4996V6.18713C20.9998 5.78943 20.8417 5.40809 20.5604 5.12695C20.2791 4.84581 19.8977 4.68788 19.5 4.68788ZM19.875 19.5004C19.875 19.5997 19.8356 19.695 19.7654 19.7653C19.6953 19.8356 19.6001 19.8752 19.5007 19.8754H4.5C4.40054 19.8754 4.30516 19.8359 4.23483 19.7655C4.16451 19.6952 4.125 19.5998 4.125 19.5004V6.18788C4.1252 6.08855 4.1648 5.99336 4.2351 5.92319C4.3054 5.85303 4.40067 5.81363 4.5 5.81363H6.9375V6.93863C6.9374 7.08781 6.99657 7.23092 7.10199 7.33648C7.20741 7.44204 7.35044 7.5014 7.49962 7.5015C7.64881 7.5016 7.79192 7.44243 7.89748 7.33701C8.00304 7.23159 8.0624 7.08856 8.0625 6.93938V5.81363H11.4375V6.93863C11.4374 7.08781 11.4966 7.23092 11.602 7.33648C11.7074 7.44204 11.8504 7.5014 11.9996 7.5015C12.1488 7.5016 12.2919 7.44243 12.3975 7.33701C12.503 7.23159 12.5624 7.08856 12.5625 6.93938V5.81363H15.9375V6.93863C15.9374 7.08781 15.9966 7.23092 16.102 7.33648C16.2074 7.44204 16.3504 7.5014 16.4996 7.5015C16.6488 7.5016 16.7919 7.44243 16.8975 7.33701C17.003 7.23159 17.0624 7.08856 17.0625 6.93938V5.81363H19.5C19.5992 5.81382 19.6943 5.85332 19.7644 5.92346C19.8346 5.9936 19.8741 6.08868 19.8743 6.18788L19.875 19.5004Z" fill="#CBA5A0"/>
<path d="M7.5 9H9.5V10.5H7.5V9ZM7.5 11.5H9.5V13H7.5V11.5ZM7.5 14H9.5V15.5H7.5V14ZM11 14H13V15.5H11V14ZM11 11.5H13V13H11V11.5ZM11 9H13V10.5H11V9ZM14.5 14H16.5V15.5H14.5V14ZM14.5 11.5H16.5V13H14.5V11.5ZM14.5 9H16.5V10.5H14.5V9Z" fill="#CBA5A0"/>
</svg>
